<?xml version="1.0" encoding="UTF-8"?>
<svg width="1921px" height="451px" viewBox="0 0 1921 451" version="1.1" xmlns="http://www.w3.org/2000/svg" xmlns:xlink="http://www.w3.org/1999/xlink">
    <title>Group 49 Copy</title>
    <defs>
        <rect id="path-1" x="0.787350064" y="0" width="1920" height="449.310595"></rect>
        <linearGradient x1="0%" y1="50%" x2="100%" y2="50%" id="linearGradient-3">
            <stop stop-color="#56CA25" offset="0%"></stop>
            <stop stop-color="#27B465" offset="100%"></stop>
        </linearGradient>
        <linearGradient x1="0%" y1="50%" x2="100%" y2="50%" id="linearGradient-4">
            <stop stop-color="#56CA25" offset="0%"></stop>
            <stop stop-color="#27B465" offset="100%"></stop>
        </linearGradient>
    </defs>
    <g id="优导师官网" stroke="none" stroke-width="1" fill="none" fill-rule="evenodd">
        <g id="Group-49-Copy" transform="translate(0.000000, 0.472000)">
            <mask id="mask-2" fill="white">
                <use xlink:href="#path-1"></use>
            </mask>
            <g id="Rectangle"></g>
            <path d="M0.787350064,267.255725 L1920.78735,267.255725 C1831.99708,388.625639 1693.08916,449.310595 1504.06357,449.310595 C1338.55734,449.310595 1112.65336,359.390364 931.568088,344.344117 C715.815853,326.417417 534.348619,404.313765 400.78735,402.566321 C270.780337,400.865378 137.447003,365.048386 0.787350064,295.115344 L0.787350064,267.255725 Z" id="Rectangle-Copy-44" fill="url(#linearGradient-3)" opacity="0.16296968" mask="url(#mask-2)" transform="translate(960.787350, 358.283160) scale(1, -1) translate(-960.787350, -358.283160) "></path>
            <path d="M-299,281.970757 L2277.62186,281.970757 C2188.83159,403.34067 2049.92367,464.025627 1860.89808,464.025627 C1695.39185,464.025627 1265.28738,325.079965 986.78735,325.079965 C667.956306,325.079965 330.214174,402.832765 135.203653,400.281352 C5.19663993,398.58041 -139.537911,354.238534 -299,267.255725 L-299,281.970757 Z" id="Rectangle-Copy-45" fill="url(#linearGradient-4)" opacity="0.0712890625" mask="url(#mask-2)" transform="translate(989.310930, 365.640676) scale(1, -1) translate(-989.310930, -365.640676) "></path>
        </g>
    </g>
</svg>